<?xml version="1.0" encoding="UTF-8" standalone="no"?>
<svg width="129px" height="129px" viewBox="0 0 129 129" version="1.1" xmlns="http://www.w3.org/2000/svg" xmlns:xlink="http://www.w3.org/1999/xlink">
    <!-- Generator: sketchtool 39.1 (31720) - http://www.bohemiancoding.com/sketch -->
    <title>47473F4A-9A5E-48AA-951C-ECE61D2CBACC</title>
    <desc>Created with sketchtool.</desc>
    <defs></defs>
    <g id="04About" stroke="none" stroke-width="1" fill="none" fill-rule="evenodd">
        <g id="04About_01" transform="translate(-169.000000, -827.000000)" stroke="#5AADE4">
            <g id="04" transform="translate(60.000000, 828.000000)">
                <g id="abouticon04" transform="translate(110.000000, 0.000000)">
                    <g>
                        <circle id="marker-213-Copy-3" cx="63.5" cy="63.5" r="63.5"></circle>
                        <path d="M50.3507895,64 C50.3507895,71.0988589 56.2076431,76.8277627 63.5,76.8277627 C70.7923569,76.8277627 76.6492105,71.0988589 76.6492105,64 C76.6492105,56.9011411 70.7923569,51.1722373 63.5,51.1722373 C56.2076431,51.1722373 50.3507895,56.9011411 50.3507895,64 L50.3507895,64 Z M63.5,43.5 C47.7473684,43.5 33.9926316,53.8183333 27,64 C33.9926316,74.1816667 47.7473684,84.5 63.5,84.5 C79.2910526,84.5 93.0073684,74.1816667 100,64 C93.0073684,53.8183333 79.2910526,43.5 63.5,43.5 Z" id="Fill-11"></path>
                    </g>
                </g>
            </g>
        </g>
    </g>
</svg>
