<svg xmlns="http://www.w3.org/2000/svg" width="297" height="45" viewBox="0 0 297 45" xmlns:xlink="http://www.w3.org/1999/xlink">
  <defs>
    <path id="a" d="M9.701,8.373 C11.827,11.804 11.499,14.636 11.499,14.636 C11.451,16.316 11.122,18.085 10.514,19.948 C9.906,21.809 9.159,23.345 8.274,24.551 C7.743,25.275 7.22,25.75 6.702,26.031 C6.356,26.219 6.012,26.337 5.673,26.326 L5.646,26.326 C4.625,26.296 4.145,25.266 4.204,23.239 C4.223,22.564 4.305,21.826 4.449,21.025 C4.893,18.443 5.687,16.104 6.83,14.005 C7.62,12.539 9.218,10.832 10.26,10.415 C9.879,10.257 9.406,10.197 8.845,10.154 C8.147,10.103 7.249,10.551 6.126,11.211 C4.34,12.263 2.669,14.039 1.492,17.292 C0.754,19.306 0.36,21.218 0.308,23.024 C0.252,24.934 0.695,26.331 1.615,27.232 C1.991,27.6 2.439,27.896 2.98,28.096 C3.551,28.3 4.294,28.417 5.217,28.444 C6.14,28.469 7.07,28.291 8.009,27.908 C9.833,27.146 11.314,25.839 12.45,23.979 C14.046,21.395 14.887,18.596 14.975,15.578 C14.975,15.578 15.63,7.541 9.602,3.124 C7.721,1.806 4.039,1.016 0.707,0.653 C4.903,3.369 7.766,5.25 9.701,8.373 Z"/>
    <linearGradient id="b" x1="8.823%" x2="8.823%" y1="5.895%" y2="2139.228%">
      <stop stop-color="#683393" offset="0%"/>
      <stop stop-color="#4FA3DA" offset="100%"/>
    </linearGradient>
    <linearGradient id="d" x1="47.316%" x2="52.699%" y1="63.793%" y2="36.479%">
      <stop stop-color="#683393" offset="0%"/>
      <stop stop-color="#4FA3DA" offset="100%"/>
    </linearGradient>
    <path id="e" d="M4.602,2.426 C2.986,3.65 1.817,5.201 1.092,7.078 C0.617,8.33 0.361,9.616 0.322,10.934 C0.261,13.035 0.633,14.691 1.438,15.9 C2.389,17.319 3.887,18.057 5.934,18.116 C7.005,18.148 8.158,17.85 9.392,17.229 L9.043,18.66 L12.543,18.76 C12.543,18.76 14.042,12.411 14.338,11.493 C14.411,11.272 14.545,10.919 15.266,10.75 L15.452,10.133 L10.22,9.982 L10.013,10.609 C10.013,10.609 11.115,10.694 10.873,11.54 C10.618,12.434 9.955,14.943 9.955,14.943 C9.417,15.604 8.621,15.922 7.567,15.89 C6.513,15.86 5.445,15.313 4.944,14.444 C4.441,13.574 4.214,12.363 4.258,10.814 C4.283,9.966 4.486,8.983 4.868,7.863 C5.249,6.741 5.736,5.739 6.33,4.856 C6.924,3.972 7.602,3.253 8.365,2.695 C9.128,2.137 10.169,1.967 10.91,1.988 C12.17,2.025 12.779,2.758 12.737,4.194 C12.73,4.441 12.594,4.812 12.329,5.305 C12.064,5.796 11.778,6.096 11.471,6.204 C11.868,6.686 12.491,6.941 13.34,6.965 C14.626,7.003 15.294,6.18 15.344,4.497 C15.362,3.846 15.231,3.285 14.95,2.813 C14.158,1.461 12.639,0.755 10.392,0.689 C10.279,0.686 10.166,0.685 10.055,0.685 C7.951,0.685 6.133,1.264 4.602,2.426 Z"/>
    <path id="g" d="M0.464,17.913 C-1.624,28.711 6.032,39.262 17.564,41.481 C22.181,42.367 26.714,41.78 30.629,40.07 C34.271,39.552 37.746,38.154 40.485,35.559 C44.781,31.492 46.784,27.312 47.732,22.509 C48.699,17.601 46.973,12.091 44.304,11.534 C42.584,11.173 40.486,11.555 40.486,11.555 C40.486,11.555 40.95,11.827 41.384,12.174 C45.383,15.369 46.486,28.783 35.432,36.578 C35.432,36.578 34.259,37.499 32.37,38.535 C32.298,38.561 32.231,38.592 32.159,38.615 C31.518,38.832 30.862,39.02 30.196,39.171 C27.5,39.787 24.611,39.868 21.683,39.305 C10.993,37.25 3.895,27.469 5.832,17.46 C7.662,7.992 16.661,1.564 26.707,2.653 L21.661,0.856 C11.085,1.003 2.33,8.257 0.464,17.913 Z"/>
    <linearGradient id="h" x1=".04%" x2=".04%" y1="1.903%" y2="2135.236%">
      <stop stop-color="#4FA3DA" offset="0%"/>
      <stop stop-color="#683393" offset="100%"/>
    </linearGradient>
    <linearGradient id="j" x1="23.223%" x2="75.257%" y1="84.271%" y2="14.816%">
      <stop stop-color="#4FA3DA" offset="0%"/>
      <stop stop-color="#683393" offset="100%"/>
    </linearGradient>
    <path id="k" d="M0.737,9.704 C0.737,15.057 4.929,19.116 10.225,19.116 C13.878,19.116 17.506,17.135 19.076,13.736 C19.615,12.612 19.86,11.293 19.885,10.242 L8.509,10.242 L8.509,11.904 L17.532,11.904 C17.238,13.322 16.355,14.69 15.08,15.692 C13.829,16.67 12.137,17.33 10.225,17.33 C6.253,17.33 2.772,14.3 2.772,9.704 C2.772,5.182 6.229,2.151 10.201,2.151 C11.819,2.151 13.241,2.614 14.418,3.421 C15.202,3.935 15.889,4.595 16.452,5.377 L18.757,5.377 C17.335,2.42 13.928,0.366 10.249,0.366 C5.003,0.366 0.737,4.277 0.737,9.704 Z"/>
    <path id="m" d="M0.496,7.173 L0.496,7.197 C0.496,10.889 3.242,14.116 7.483,14.116 C11.75,14.116 14.496,10.889 14.496,7.197 C14.496,3.506 11.75,0.255 7.483,0.255 C3.242,0.255 0.496,3.506 0.496,7.173 Z M2.286,7.222 L2.286,7.197 C2.286,4.191 4.566,1.941 7.483,1.941 C10.426,1.941 12.681,4.191 12.681,7.197 C12.681,10.204 10.426,12.452 7.483,12.452 C4.566,12.452 2.286,10.204 2.286,7.222 Z"/>
    <path id="o" d="M0.478,0.684 L0.478,18.772 L2.218,18.772 L2.218,16.058 C3.199,17.942 5.136,19.139 7.612,19.139 C11.609,19.139 14.453,16.132 14.453,12.173 C14.453,8.066 11.413,5.255 7.661,5.255 C5.381,5.279 3.395,6.403 2.292,8.261 L2.292,5.621 L2.292,0.684 L0.478,0.684 Z M2.194,12.173 C2.194,9.264 4.376,6.917 7.417,6.917 C10.358,6.917 12.638,9.165 12.638,12.173 L12.638,12.197 C12.638,14.739 10.849,17.452 7.343,17.452 C4.278,17.452 2.194,15.033 2.194,12.173 Z"/>
    <path id="q" d="M0.603,7.197 C0.603,10.814 3.153,14.139 7.443,14.139 C9.796,14.139 11.807,13.039 12.837,11.058 L12.837,13.772 L14.651,13.772 L14.651,0.621 L12.837,0.621 L12.837,3.384 C12.199,1.893 10.263,0.255 7.443,0.255 C3.422,0.255 0.603,3.335 0.603,7.197 Z M2.392,7.222 L2.392,7.197 C2.392,4.264 4.599,1.917 7.638,1.917 C9.968,1.917 11.734,3.261 12.469,5.071 C12.763,5.706 12.91,6.44 12.885,7.173 C12.885,7.881 12.739,8.616 12.444,9.251 C11.734,11.107 10.017,12.452 7.689,12.452 C4.06,12.452 2.417,9.592 2.392,7.222 Z"/>
    <path id="s" d="M0.218,9.777 L0.218,9.802 C0.218,14.96 4.312,19.09 9.682,19.09 C15.027,19.09 19.145,15.033 19.145,9.728 C19.145,4.423 15.003,0.366 9.682,0.366 C4.558,0.366 0.218,4.204 0.218,9.777 Z M2.254,9.728 L2.254,9.704 C2.254,5.524 5.417,2.151 9.682,2.151 C13.997,2.151 17.136,5.597 17.136,9.728 C17.136,13.86 13.997,17.306 9.706,17.306 C5.465,17.306 2.254,13.982 2.254,9.728 Z"/>
    <path id="u" d="M1.844,2.967 C1.869,2.088 1.869,1.355 1.869,0.621 L0.153,0.621 L0.153,13.772 L1.967,13.772 L1.967,6.342 C1.967,3.604 3.535,1.966 6.258,1.941 C9.224,1.893 10.5,3.823 10.5,6.659 L10.5,13.772 L12.289,13.772 L12.289,6.293 C12.289,3.091 10.842,0.303 6.748,0.255 C6.696,0.254 6.644,0.253 6.593,0.253 C4.315,0.253 2.587,1.295 1.844,2.967 Z"/>
    <path id="w" d="M0.222,7.197 C0.222,10.717 2.845,14.139 7.308,14.139 C10.47,14.139 13.044,12.111 13.903,9.323 L12.016,9.323 C11.451,10.913 9.758,12.429 7.234,12.452 C4.39,12.452 2.036,10.302 2.036,7.197 C2.036,5.682 2.649,4.264 3.532,3.408 C4.635,2.382 5.714,1.917 7.258,1.917 C9.121,1.917 11.206,2.943 12.04,5.168 L13.903,5.168 C12.996,2.014 10.152,0.255 7.184,0.255 C3.188,0.255 0.222,3.311 0.222,7.197 Z"/>
    <path id="y" d="M0.954,7.173 L0.954,7.197 C0.954,10.889 3.701,14.116 7.942,14.116 C12.208,14.116 14.954,10.889 14.954,7.197 C14.954,3.506 12.208,0.255 7.942,0.255 C3.701,0.255 0.954,3.506 0.954,7.173 Z M2.744,7.222 L2.744,7.197 C2.744,4.191 5.024,1.941 7.942,1.941 C10.884,1.941 13.139,4.191 13.139,7.197 C13.139,10.204 10.884,12.452 7.942,12.452 C5.024,12.452 2.744,10.204 2.744,7.222 Z"/>
    <path id="A" d="M0.712,7.173 L0.712,7.197 C0.712,10.889 3.458,14.116 7.699,14.116 C11.965,14.116 14.711,10.889 14.711,7.197 C14.711,3.506 11.965,0.255 7.699,0.255 C3.458,0.255 0.712,3.506 0.712,7.173 Z M2.502,7.222 L2.502,7.197 C2.502,4.191 4.782,1.941 7.699,1.941 C10.641,1.941 12.897,4.191 12.897,7.197 C12.897,10.204 10.641,12.452 7.699,12.452 C4.782,12.452 2.502,10.204 2.502,7.222 Z"/>
    <path id="C" d="M0.861,7.222 C0.861,11.01 3.632,14.139 7.75,14.139 C10.3,14.139 12.139,12.844 13.071,10.986 L13.071,12.673 C13.071,15.948 10.496,17.903 7.971,17.903 C7.137,17.903 6.009,17.634 5.053,16.95 C4.269,16.412 3.803,15.776 3.484,15.215 L1.401,15.215 C2.233,17.585 4.637,19.469 7.921,19.469 C9.711,19.469 11.624,18.71 12.923,17.439 C14.075,16.34 14.885,14.751 14.885,12.257 L14.885,0.621 L13.095,0.621 L13.095,3.335 C12.36,1.721 10.349,0.255 7.75,0.255 C3.729,0.255 0.861,3.286 0.861,7.222 Z M2.675,7.197 L2.675,7.173 C2.675,4.092 5.029,1.941 7.921,1.941 C9.809,1.941 11.134,2.724 11.942,3.775 C12.777,4.826 13.144,6.122 13.144,7.222 C13.119,8.664 12.579,9.985 11.672,10.938 C10.741,11.891 9.466,12.452 7.971,12.452 C4.563,12.452 2.675,9.861 2.675,7.197 Z"/>
  </defs>
  <g fill="none" fill-rule="evenodd" transform="translate(0 1)">
    <g transform="translate(26 2)">
      <mask id="c" fill="white">
        <use xlink:href="#a"/>
      </mask>
      <polygon fill="url(#b)" points="-26 43 272.125 43 272.125 -2 -26 -2" mask="url(#c)"/>
    </g>
    <path fill="url(#d)" d="M35.701,10.373 C37.827,13.804 37.499,16.636 37.499,16.636 L37.499,16.636 C37.451,18.316 37.122,20.085 36.514,21.948 L36.514,21.948 C35.906,23.809 35.159,25.345 34.274,26.551 L34.274,26.551 C33.743,27.275 33.22,27.75 32.702,28.031 L32.702,28.031 C32.356,28.219 32.012,28.337 31.673,28.326 L31.673,28.326 L31.646,28.326 C30.625,28.296 30.145,27.266 30.204,25.239 L30.204,25.239 C30.223,24.564 30.305,23.826 30.449,23.025 L30.449,23.025 C30.893,20.443 31.687,18.104 32.83,16.005 L32.83,16.005 C33.62,14.539 35.218,12.832 36.26,12.415 L36.26,12.415 C35.879,12.257 35.406,12.197 34.845,12.154 L34.845,12.154 C34.147,12.103 33.249,12.551 32.126,13.211 L32.126,13.211 C30.34,14.263 28.669,16.039 27.492,19.292 L27.492,19.292 C26.754,21.306 26.36,23.218 26.308,25.024 L26.308,25.024 C26.252,26.934 26.695,28.331 27.615,29.232 L27.615,29.232 C27.991,29.6 28.439,29.896 28.98,30.096 L28.98,30.096 C29.551,30.3 30.294,30.417 31.217,30.444 L31.217,30.444 C32.14,30.469 33.07,30.291 34.009,29.908 L34.009,29.908 C35.833,29.146 37.314,27.839 38.45,25.979 L38.45,25.979 C40.046,23.395 40.887,20.596 40.975,17.578 L40.975,17.578 C40.975,17.578 41.63,9.541 35.602,5.124 L35.602,5.124 C33.721,3.806 30.039,3.016 26.707,2.653 L26.707,2.653 C30.903,5.369 33.766,7.25 35.701,10.373"/>
    <g transform="translate(10 11)">
      <mask id="f" fill="white">
        <use xlink:href="#e"/>
      </mask>
      <polygon fill="#683393" points="-4.372 23.448 20.14 23.448 20.14 -4.003 -4.372 -4.003" mask="url(#f)"/>
    </g>
    <mask id="i" fill="white">
      <use xlink:href="#g"/>
    </mask>
    <polygon fill="url(#h)" points="0 45 298.125 45 298.125 0 0 0" mask="url(#i)"/>
    <path fill="url(#j)" d="M0.464,17.913 C-1.624,28.711 6.032,39.262 17.564,41.481 L17.564,41.481 C22.181,42.367 26.714,41.78 30.629,40.07 L30.629,40.07 C34.271,39.552 37.746,38.154 40.485,35.559 L40.485,35.559 C44.781,31.492 46.784,27.312 47.732,22.509 L47.732,22.509 C48.699,17.601 46.973,12.091 44.304,11.534 L44.304,11.534 C42.584,11.173 40.486,11.555 40.486,11.555 L40.486,11.555 C40.486,11.555 40.95,11.827 41.384,12.174 L41.384,12.174 C45.383,15.369 46.486,28.783 35.432,36.578 L35.432,36.578 C35.432,36.578 34.259,37.499 32.37,38.535 L32.37,38.535 C32.298,38.561 32.231,38.592 32.159,38.615 L32.159,38.615 C31.518,38.832 30.862,39.02 30.196,39.171 L30.196,39.171 C27.5,39.787 24.611,39.868 21.683,39.305 L21.683,39.305 C10.993,37.25 3.895,27.469 5.832,17.46 L5.832,17.46 C7.662,7.992 16.661,1.564 26.707,2.653 L26.707,2.653 L21.661,0.856 C11.085,1.003 2.33,8.257 0.464,17.913"/>
    <g transform="translate(53 12)">
      <mask id="l" fill="white">
        <use xlink:href="#k"/>
      </mask>
      <polygon fill="#50A3DA" points="-3.951 23.803 24.572 23.803 24.572 -4.322 -3.951 -4.322" mask="url(#l)"/>
    </g>
    <polygon fill="#50A3DA" points="74.722 30.772 76.536 30.772 76.536 12.684 74.722 12.684"/>
    <g transform="translate(78 17)">
      <mask id="n" fill="white">
        <use xlink:href="#m"/>
      </mask>
      <polygon fill="#50A3DA" points="-4.191 18.802 19.184 18.802 19.184 -4.433 -4.191 -4.433" mask="url(#n)"/>
    </g>
    <g transform="translate(94 12)">
      <mask id="p" fill="white">
        <use xlink:href="#o"/>
      </mask>
      <polygon fill="#50A3DA" points="-4.209 23.826 19.14 23.826 19.14 -4.004 -4.209 -4.004" mask="url(#p)"/>
    </g>
    <g transform="translate(109 17)">
      <mask id="r" fill="white">
        <use xlink:href="#q"/>
      </mask>
      <polygon fill="#50A3DA" points="-4.085 18.826 19.339 18.826 19.339 -4.433 -4.085 -4.433" mask="url(#r)"/>
    </g>
    <polygon fill="#50A3DA" points="126.444 30.772 128.258 30.772 128.258 12.684 126.444 12.684"/>
    <g transform="translate(130 12)">
      <mask id="t" fill="white">
        <use xlink:href="#s"/>
      </mask>
      <polygon fill="#683393" points="-4.469 23.777 23.833 23.777 23.833 -4.322 -4.469 -4.322" mask="url(#t)"/>
    </g>
    <g transform="translate(151 17)">
      <mask id="v" fill="white">
        <use xlink:href="#u"/>
      </mask>
      <polygon fill="#683393" points="-4.534 18.46 16.976 18.46 16.976 -4.434 -4.534 -4.434" mask="url(#v)"/>
    </g>
    <g transform="translate(165 17)">
      <mask id="x" fill="white">
        <use xlink:href="#w"/>
      </mask>
      <polygon fill="#683393" points="-4.465 18.826 18.591 18.826 18.591 -4.433 -4.465 -4.433" mask="url(#x)"/>
    </g>
    <g transform="translate(179 17)">
      <mask id="z" fill="white">
        <use xlink:href="#y"/>
      </mask>
      <polygon fill="#683393" points="-3.733 18.802 19.642 18.802 19.642 -4.433 -3.733 -4.433" mask="url(#z)"/>
    </g>
    <polygon fill="#683393" points="195.937 30.772 197.751 30.772 197.751 12.684 195.937 12.684"/>
    <g transform="translate(199 17)">
      <mask id="B" fill="white">
        <use xlink:href="#A"/>
      </mask>
      <polygon fill="#683393" points="-3.976 18.802 19.399 18.802 19.399 -4.433 -3.976 -4.433" mask="url(#B)"/>
    </g>
    <g transform="translate(214 17)">
      <mask id="D" fill="white">
        <use xlink:href="#C"/>
      </mask>
      <polygon fill="#683393" points="-3.827 24.156 19.572 24.156 19.572 -4.433 -3.827 -4.433" mask="url(#D)"/>
    </g>
    <polygon fill="#683393" points="240.43 17.621 236.164 28.255 232.02 17.621 230.084 17.621 235.183 30.529 232.928 35.759 234.889 35.759 242.415 17.621"/>
    <g fill="#50A3DA" transform="translate(244 12)">
      <polygon points=".197 18.938 2.8 .757 3.096 .757 10.487 15.675 17.806 .757 18.097 .757 20.714 18.938 18.932 18.938 17.136 5.936 10.708 18.938 10.243 18.938 3.738 5.837 1.952 18.938"/>
      <path d="M29.092 6.8124C28.129 6.8124 27.24 7.0494 26.425 7.5224 25.61 7.9964 24.962 8.6604 24.48 9.5164 23.999 10.3724 23.759 11.2784 23.759 12.2324 23.759 13.1794 24.001 14.0844 24.487 14.9484 24.972 15.8134 25.625 16.4854 26.443 16.9674 27.262 17.4494 28.141 17.6884 29.079 17.6884 30.026 17.6884 30.923 17.4504 31.771 16.9734 32.618 16.4964 33.27 15.8494 33.727 15.0344 34.184 14.2204 34.413 13.3024 34.413 12.2814 34.413 10.7264 33.9 9.4264 32.875 8.3804 31.851 7.3364 30.59 6.8124 29.092 6.8124L29.092 6.8124zM36.007 5.4904L36.007 18.9374 34.301 18.9374 34.301 16.6264C33.576 17.5084 32.762 18.1714 31.861 18.6164 30.958 19.0614 29.971 19.2834 28.9 19.2834 26.997 19.2834 25.371 18.5934 24.025 17.2134 22.677 15.8334 22.004 14.1554 22.004 12.1774 22.004 10.2414 22.683 8.5844 24.043 7.2084 25.402 5.8324 27.038 5.1444 28.95 5.1444 30.054 5.1444 31.053 5.3784 31.947 5.8494 32.841 6.3184 33.626 7.0234 34.301 7.9624L34.301 5.4904 36.007 5.4904zM45.4259 6.8124C43.9299 6.8124 42.6699 7.3364 41.6469 8.3804 40.6229 9.4264 40.1109 10.7264 40.1109 12.2814 40.1109 13.3024 40.3389 14.2204 40.7959 15.0344 41.2519 15.8494 41.9059 16.4964 42.7559 16.9734 43.6079 17.4504 44.5049 17.6884 45.4509 17.6884 46.3799 17.6884 47.2529 17.4494 48.0709 16.9674 48.8889 16.4854 49.5399 15.8134 50.0259 14.9484 50.5109 14.0844 50.7529 13.1794 50.7529 12.2324 50.7529 11.2784 50.5129 10.3724 50.0319 9.5164 49.5499 8.6604 48.9029 7.9964 48.0889 7.5224 47.2759 7.0494 46.3879 6.8124 45.4259 6.8124L45.4259 6.8124zM38.5049 5.4904L40.2349 5.4904 40.2349 7.9624C40.9189 7.0234 41.7039 6.3184 42.5929 5.8494 43.4819 5.3784 44.4749 5.1444 45.5689 5.1444 47.4789 5.1444 49.1129 5.8324 50.4709 7.2084 51.8289 8.5844 52.5089 10.2414 52.5089 12.1774 52.5089 14.1554 51.8359 15.8334 50.4899 17.2134 49.1439 18.5934 47.5199 19.2834 45.6179 19.2834 44.5479 19.2834 43.5649 19.0614 42.6679 18.6164 41.7699 18.1714 40.9589 17.5084 40.2349 16.6264L40.2349 23.8564 38.5049 23.8564 38.5049 5.4904z"/>
    </g>
  </g>
</svg>
